<?xml version="1.0" encoding="UTF-8"?>
<svg version="1.1" xmlns="http://www.w3.org/2000/svg" width="512" height="512">
<path d="M0 0 C1.13526432 -0.00367669 2.27052864 -0.00735338 3.4401949 -0.01114148 C7.24124722 -0.02214714 11.04227217 -0.02601693 14.84333801 -0.02983093 C17.57050813 -0.0355694 20.2976742 -0.04273288 23.02484131 -0.04974365 C31.2074807 -0.06946281 39.39012124 -0.07957 47.57277843 -0.08847144 C51.43493651 -0.09286314 55.29709324 -0.09822777 59.15925026 -0.10346031 C72.01416203 -0.12047055 84.86907297 -0.13496083 97.72399426 -0.14220905 C101.05641875 -0.14411867 104.38884323 -0.14603904 107.7212677 -0.147995 C108.96351883 -0.14872061 108.96351883 -0.14872061 110.23086593 -0.14946087 C123.6220619 -0.15774664 137.01316812 -0.18305981 150.40432497 -0.21557567 C164.18175611 -0.24875403 177.95914183 -0.26666764 191.73661309 -0.26985329 C199.4602705 -0.27200881 207.18379717 -0.28061544 214.90741539 -0.30631447 C221.49066186 -0.32816956 228.07374583 -0.33600012 234.65702447 -0.32634769 C238.00751849 -0.32184478 241.35741018 -0.32569491 244.707901 -0.34310913 C284.83345562 -0.53983483 319.12635422 10.90332902 348.22541809 39.33467102 C371.33641898 62.53730143 384.81579928 94.79482033 384.81008911 127.48425293 C384.8137658 128.61951725 384.81744249 129.75478157 384.82123059 130.92444783 C384.83223625 134.72550015 384.83610605 138.5265251 384.83992004 142.32759094 C384.84565851 145.05476106 384.85282199 147.78192713 384.85983276 150.50909424 C384.87955192 158.69173363 384.88965911 166.87437417 384.89856055 175.05703136 C384.90295225 178.91918944 384.90831689 182.78134617 384.91354942 186.64350319 C384.93055966 199.49841496 384.94504994 212.3533259 384.95229816 225.20824718 C384.95420778 228.54067168 384.95612815 231.87309616 384.95808411 235.20552063 C384.95856785 236.03368805 384.95905159 236.86185546 384.95954999 237.71511886 C384.96783575 251.10631483 384.99314892 264.49742105 385.02566478 277.8885779 C385.05884314 291.66600904 385.07675675 305.44339476 385.07994241 319.22086602 C385.08209792 326.94452343 385.09070455 334.6680501 385.11640358 342.39166832 C385.13825868 348.97491479 385.14608923 355.55799876 385.1364368 362.1412774 C385.13193389 365.49177142 385.13578402 368.84166311 385.15319824 372.19215393 C385.34992394 412.31770855 373.90676009 446.61060715 345.47541809 475.70967102 C322.27278769 498.82067191 290.01526879 512.30005221 257.32583618 512.29434204 C256.19057186 512.29801873 255.05530754 512.30169542 253.88564128 512.30548352 C250.08458896 512.31648918 246.28356401 512.32035898 242.48249817 512.32417297 C239.75532805 512.32991144 237.02816198 512.33707492 234.30099487 512.34408569 C226.11835548 512.36380485 217.93571494 512.37391204 209.75305775 512.38281348 C205.89089967 512.38720518 202.02874294 512.39256982 198.16658592 512.39780235 C185.31167416 512.41481259 172.45676321 512.42930287 159.60184193 512.43655109 C156.26941743 512.43846071 152.93699295 512.44038108 149.60456848 512.44233704 C148.36231736 512.44306265 148.36231736 512.44306265 147.09497025 512.44380292 C133.70377428 512.45208868 120.31266806 512.47740185 106.92151121 512.50991771 C93.14408007 512.54309607 79.36669435 512.56100968 65.58922309 512.56419533 C57.86556568 512.56635085 50.14203901 512.57495748 42.41842079 512.60065651 C35.83517432 512.62251161 29.25209035 512.63034216 22.66881172 512.62068973 C19.31831769 512.61618682 15.968426 512.62003695 12.61793518 512.63745117 C-27.50990171 512.83418806 -61.79752484 501.38958585 -90.89958191 472.95967102 C-113.99823935 449.79987906 -127.48995449 417.4502053 -127.48425293 384.81008911 C-127.48792962 383.67482479 -127.49160631 382.53956047 -127.49539441 381.36989421 C-127.50640007 377.56884189 -127.51026986 373.76781694 -127.51408386 369.9667511 C-127.51982233 367.23958098 -127.52698581 364.51241491 -127.53399658 361.7852478 C-127.55371574 353.60260841 -127.56382293 345.41996787 -127.57272437 337.23731068 C-127.57711607 333.3751526 -127.5824807 329.51299587 -127.58771324 325.65083885 C-127.60472348 312.79592709 -127.61921376 299.94101614 -127.62646198 287.08609486 C-127.6283716 283.75367036 -127.63029197 280.42124588 -127.63224792 277.08882141 C-127.63273167 276.26065399 -127.63321541 275.43248658 -127.6337138 274.57922318 C-127.64199956 261.18802721 -127.66731274 247.79692099 -127.6998286 234.40576414 C-127.73300696 220.628333 -127.75092057 206.85094728 -127.75410622 193.07347602 C-127.75626174 185.34981861 -127.76486837 177.62629194 -127.7905674 169.90267372 C-127.81242249 163.31942725 -127.82025305 156.73634328 -127.81060062 150.15306465 C-127.80609771 146.80257062 -127.80994784 143.45267893 -127.82736206 140.10218811 C-128.02409895 99.97435122 -116.57949674 65.68672809 -88.14958191 36.58467102 C-64.98978995 13.48601358 -32.64011619 -0.00570156 0 0 Z " fill="#175FBF" transform="translate(127.33708190917969,-0.1471710205078125)"/>
<path d="M0 0 C17.49 0 34.98 0 53 0 C53.11317952 21.08934952 53.20515354 42.17845043 53.25906086 63.26802731 C53.28476419 73.06185268 53.31976289 82.85547497 53.37719727 92.64916992 C53.42727466 101.19247842 53.4593481 109.73563973 53.47044247 118.27909094 C53.47692034 122.79639876 53.49197774 127.31328572 53.52865028 131.83045769 C53.56299603 136.09623687 53.57297666 140.36142835 53.56553841 144.62733269 C53.56689596 146.17956759 53.57659623 147.73182549 53.59602737 149.28393936 C53.82887475 168.87074682 48.09822164 187.23989388 34.46801758 201.74755859 C19.80423552 216.52256098 -0.01013125 223.98846668 -20.65527344 224.24145508 C-41.24177183 224.2950498 -58.84229807 221.14981546 -76 209 C-77.03125 208.278125 -78.0625 207.55625 -79.125 206.8125 C-90.65938161 196.615438 -96.37461758 182.78504838 -99 168 C-99 163.38 -99 158.76 -99 154 C-81.51 154 -64.02 154 -46 154 C-45.34 158.62 -44.68 163.24 -44 168 C-41.50404504 174.36898852 -39.07886512 178.0590228 -32.734375 181.078125 C-26.44051204 183.20005594 -18.61337542 183.15067424 -12.5 180.4375 C-7.14296889 177.25040554 -3.76981814 171.89939381 -2 166 C-1.22376864 161.33617253 -0.86792754 156.84690536 -0.84178162 152.1219635 C-0.83684364 151.4666977 -0.83190566 150.8114319 -0.82681805 150.13630956 C-0.81157218 147.96074843 -0.80311786 145.78521649 -0.79467773 143.60961914 C-0.78508903 142.04210152 -0.77507837 140.47458643 -0.76467896 138.90707397 C-0.73773133 134.66590448 -0.7166671 130.42472397 -0.69667697 126.18351674 C-0.67475458 121.74589503 -0.64739658 117.30830688 -0.62062073 112.87071228 C-0.57077817 104.47383795 -0.52580816 96.0769449 -0.48259836 87.6800341 C-0.43315373 78.11775827 -0.37826247 68.55551612 -0.32291877 58.9932729 C-0.2092283 39.32887852 -0.1030802 19.66445306 0 0 Z " fill="#FEFEFE" transform="translate(279,144)"/>
</svg>
